<?xml version="1.0" encoding="UTF-8" standalone="no"?>
<!DOCTYPE svg PUBLIC "-//W3C//DTD SVG 1.1//EN" "http://www.w3.org/Graphics/SVG/1.1/DTD/svg11.dtd">
<svg width="100%" height="100%" viewBox="0 0 592 934" version="1.1" xmlns="http://www.w3.org/2000/svg" xmlns:xlink="http://www.w3.org/1999/xlink" xml:space="preserve" xmlns:serif="http://www.serif.com/" style="fill-rule:evenodd;clip-rule:evenodd;stroke-linecap:round;stroke-linejoin:round;stroke-miterlimit:1.5;">
    <g transform="matrix(1,0,0,1,-59.443,-91.3074)">
        <path d="M484.361,359.485L483.267,325.285C493.995,309.173 506.986,291.789 502.59,284.185C514.422,268.309 519.447,247.668 522.153,225.403C515.583,114.593 455.07,92.564 380.008,94.481C331.942,95.882 312.468,118.728 310.005,154.331C312.332,181.328 299.949,204.314 286.492,227.006L290.767,254.26C276.631,308.67 291.498,331.177 305.195,354.969L304.661,378.769C313.363,391.935 325.912,396.309 340.999,394.882C364.723,362.819 408.652,347.771 484.361,359.485Z" style="fill:rgb(199,190,140);stroke:black;stroke-width:2.61px;"/>
        <path d="M299.645,205.642C324.441,206.933 325.464,226.595 318.883,252.133C315.773,268.738 317.587,268.224 335.88,262C335.962,244.224 347.301,237.103 356,233.964C374.586,233.961 381.738,245.951 388.65,260.541L393.695,303.968C444.149,341.47 467.016,339.318 482.402,326.411C486.094,318.155 497.759,315.063 502.59,298.357C511.37,267.991 527.363,236.784 522.153,206.814C521.114,200.842 514.022,186.191 515.11,177.068C515.824,171.074 526.484,169.604 522.153,167.028C518.625,164.93 511.973,164.086 510.606,159.789L494.158,132.433C450.03,82.383 353.232,82.257 322.444,116.774C317.769,122.015 303.88,147.988 291.828,147.033C276.745,145.837 301.692,164.729 299.277,170.309C295.984,177.92 306.664,192.384 299.645,205.642Z" style="fill:rgb(115,107,69);stroke:black;stroke-width:2.61px;"/>
        <path d="M233.093,859.679C224.437,861.193 215.141,855.289 206.583,856.551C161.785,863.159 119.585,872.151 84.804,852.999C62.565,827.247 60.265,802.824 64.765,778.855C59.344,765.584 59.052,744.254 66.1,711.389C81.474,681.205 102.605,655.627 126.886,632.569C140.562,608.171 150.396,579.931 151.601,543.061L211.718,470.252L325.941,421.49C370.452,400.261 418.377,382.536 506.481,406.046C569.957,455.721 619.43,500.113 634.544,557.088C636.965,565.835 635.324,576.316 637.556,584.954C643.655,608.558 652.136,629.468 649.239,647.932C646.945,670.399 642.977,696.422 633.298,734.581C620.024,744.618 616.478,760.736 614.638,777.919C614.501,788.996 607.607,817.161 591.794,861.015C596.222,880.386 593.778,899.757 581.106,919.128C575.324,929.426 573.362,939.136 586.133,946.58C602.276,981.076 606.555,1003.71 598.474,1013.98L592.462,1024L223.742,1024C215.746,1007.59 211.921,986.172 211.05,961.211L233.093,859.679Z" style="fill:rgb(39,112,138);stroke:black;stroke-width:2.61px;"/>
        <path d="M225.647,730.361C252.516,693.548 284.304,675.588 315.662,655.984L270.791,709.441C270.791,709.441 314.02,714.261 328.248,722.743C342.475,731.224 373.118,777.189 373.118,777.189L288.028,730.361L302.256,761.321L299.52,794.167L271.612,799.351C271.612,799.351 290.491,802.101 320.313,828.633C350.136,855.166 361.08,877.601 362.721,887.451C364.363,897.3 356,912.348 356,912.348C356,912.348 316.756,878.148 307.728,874.591C298.699,871.035 260.121,849.42 260.121,849.42C260.121,849.42 260.121,867.204 262.31,871.308C264.499,875.412 292.68,952.568 338.645,972.54C384.61,992.513 405.13,1005.1 415.8,1008.66C426.47,1012.21 380.779,1016.04 372.297,1013.31C363.816,1010.57 324.964,1004 293.5,971.172C262.036,938.34 249.177,900.31 246.441,896.206C243.705,892.102 241.79,924.113 243.158,935.604C244.526,947.096 236.044,952.841 249.998,979.654C263.951,1006.47 268.055,1011.12 289.944,1014.4C311.832,1017.69 263.951,1015.77 256.017,1012.21C248.083,1008.66 249.998,1019.6 227.015,991.966C204.033,964.332 211.949,959.408 211.949,959.408C227.314,885.903 227.494,883.253 233.582,863.1L237.646,790.869C230.12,776.149 225.146,757.487 225.647,730.361Z" style="fill:rgb(31,88,108);stroke:black;stroke-width:2.61px;"/>
        <path d="M232.302,857.943C208.713,858.59 191.321,848.612 180.2,827.884C175.789,785.712 200.486,758.093 224.954,730.361C224.029,755.111 229.66,773.304 237.646,789.142L232.302,857.943Z" style="fill:rgb(199,184,140);stroke:black;stroke-width:2.61px;"/>
        <path d="M502.59,405.299L485.917,360.411C406.565,345.304 351.518,360.698 330.307,418.552C395.752,391.932 451.966,390.876 502.59,405.299Z" style="fill:rgb(140,176,199);stroke:black;stroke-width:2.61px;"/>
        <path d="M183.516,794.167C174.028,816.457 146.724,833.001 114.588,847.986C125.771,849.125 161.317,835.877 168.944,824.249C169.289,823.722 163.924,839.673 137.702,857.973C153.544,853.687 168.223,848.237 179.685,839.57C179.839,839.656 173.29,856.166 161.488,863.1L208.666,854.618C184.906,846.32 172.247,829.466 183.516,794.167Z" style="fill:rgb(55,72,105);stroke:black;stroke-width:2.61px;"/>
        <path d="M340.351,431.628C335.715,425.755 452.459,398.356 502.668,420.94C547.586,441.145 543.84,447.938 542.746,446.991C535.091,440.366 355.741,422.421 340.351,431.628Z" style="fill:rgb(31,88,108);stroke:black;stroke-width:2.61px;"/>
        <path d="M347.149,251.601C349.172,240.427 354.251,238.419 362.111,244.755C365.852,257.033 362.477,274.9 356,295.206L344.584,310.169C346.166,317.693 350.04,318.343 356,312.734C361.871,308.772 366.954,303.892 368.438,294.813" style="fill:none;stroke:black;stroke-width:2.61px;"/>
        <path d="M348.163,386.76C344.353,381.042 342.153,368.558 340.217,354.969C340.057,369.392 341.007,382.15 344.584,390.968L348.163,386.76Z" style="fill:rgb(145,139,104);stroke:black;stroke-width:1.54px;"/>
    </g>
</svg>
