<?xml version="1.0" encoding="UTF-8" standalone="no"?>
<!DOCTYPE svg PUBLIC "-//W3C//DTD SVG 1.1//EN" "http://www.w3.org/Graphics/SVG/1.1/DTD/svg11.dtd">
<svg width="100%" height="100%" viewBox="0 0 1072 810" version="1.1" xmlns="http://www.w3.org/2000/svg" xmlns:xlink="http://www.w3.org/1999/xlink" xml:space="preserve" xmlns:serif="http://www.serif.com/" style="fill-rule:evenodd;clip-rule:evenodd;stroke-linecap:round;stroke-linejoin:round;stroke-miterlimit:1.5;">
    <g transform="matrix(1,0,0,1,1.37668e-14,0.0019)">
        <g transform="matrix(1,0,0,1,-226.411,-89.4819)">
            <g>
                <path d="M876.448,547.156C903.329,513.036 930.197,478.336 954.186,324.128C958.829,244.907 936.318,188.184 890.923,150.423C853.754,112.364 796.211,96.62 729.013,91.45C631.671,108.866 593.311,129.969 587.476,153.104C562.126,165.347 541.689,179.101 534.936,197.066L528.759,280.138C535.714,320.022 544.416,354.316 558.525,371.307C564.602,403.543 572.393,442.329 578.469,461.698C592.887,426.371 595.047,383.691 592.301,338.067L625.219,254.968L674.007,247.784L774.798,242.101L798.709,235.989L833.558,252.823C848.753,322.856 865.617,390.579 895.748,439.931L876.448,547.156Z" style="fill:rgb(79,73,67);stroke:black;stroke-width:3.94px;"/>
                <path d="M909.459,168.41L853.836,149.646C871.19,158.335 886.94,166.901 889.355,174.442L860.538,175.782C862.547,183.463 870.466,190.69 887.344,197.227L860.538,205.939C862.85,220.85 879.206,218.853 900.962,216.608C892.664,227.909 863.448,240.334 827.7,236.766C841.249,320.79 855.145,404.178 894.716,440.494L921.522,388.222L873.941,541.017C878.069,543.155 888.411,554.325 902.375,518.064C946.402,403.738 993.653,259.587 909.459,168.41Z" style="fill:rgb(49,46,44);stroke:black;stroke-width:3.94px;"/>
                <path d="M619.798,229.017C596.662,242.866 583.696,267.441 583.792,292.012L591.164,349.646C588.73,403.254 584.439,439.227 578.431,458.881C598.641,538.45 616.301,589.971 629.363,590.902L627.352,628.346L646.787,683.384C671.47,698.293 692.517,716.112 705.76,740.173L750,740.173C758.57,730.165 850.343,673.983 882.746,628.346C888.212,614.703 882.401,584.211 874.597,548.682L893.152,481.667C906.838,477.97 918.471,464.008 927.582,437.436C932.527,413.727 928.068,399.422 921.551,387.174C904.327,402.483 896.647,421.768 893.152,442.797C883.305,419.143 871.725,380.468 858.447,327.076L835.387,257.44L798.912,216.284C784.007,217.213 772.013,219.779 775.457,231.028L668.902,245.101C659.541,232.733 641.742,228.803 619.798,229.017Z" style="fill:rgb(204,149,112);stroke:black;stroke-width:4.03px;"/>
                <path d="M636.399,574.126C649.57,616.952 667.38,632.916 689.986,636.038C692.036,636.321 703.885,639.059 705.437,636.092C707.089,632.933 705.793,620.392 706.852,623.919C708.029,627.843 710.871,630.597 713.36,633.838C721.205,644.05 750.856,632.345 761.18,622.5C773.731,610.53 786.932,597.845 793.284,587.017C782.001,622.076 731.769,662.429 661.859,639.936C670.276,648.063 709.73,663.582 726.931,662.925C773.459,643.19 788.444,610.239 799.013,602.467C805.788,597.484 774.53,635.92 777.129,634.045C811.399,609.31 841.512,578.888 869.292,545.132C838.544,595.372 812.848,623.087 724.341,672.498C695.628,673.67 676.041,655.217 669.562,654.193C681.401,670.551 699.749,681.17 718.268,686.274C802.402,649.36 845.85,599.517 869.223,565.53C865.838,588.469 820.975,640.959 723.895,696.105C704.541,700.662 686.801,682.62 668.944,666.219C696.025,701.426 703.654,705.043 725.61,705.112C809.999,667.414 853.588,631.174 876.48,595.674C854.05,641.031 806.623,679.541 730.757,710.258C694.747,712.261 678.15,702.647 663.42,689.585C656.697,687.466 647.784,679.922 643.248,669.342C637.664,656.318 635.053,641.378 628.679,630.912C631.653,612.2 634.457,591.594 629.818,586.351C623.292,589.061 614.841,563.872 604.084,538.781L650.124,620.189C641.441,599.187 637.76,585.061 636.399,574.126Z" style="fill:rgb(177,144,112);stroke:rgb(152,127,103);stroke-width:2.5px;"/>
                <path d="M691.73,384.292C691.971,388.632 689.578,410.789 689.292,428.313C682.464,438.117 674.666,454.899 669.77,474.189C665.848,482.61 670.552,485.178 680.063,484.483C678.754,479.725 678.724,475.752 684.867,475.562L692.721,483.609C697.459,486.262 701.78,486.698 705.797,485.512C712.013,482.804 718.398,470.993 727.784,471.631C728.41,471.674 738.115,472.134 735.649,478.993C756.307,474.615 747.729,457.243 735.306,438.162C751.359,454.392 757.694,470.083 740.796,484.483C729.15,477.427 721.097,480.429 714.032,486.199C706.394,489.826 679.539,486.599 677.319,487.914C670.688,490.539 666.423,488.431 665.309,480.023C678.392,443.612 687.548,411.333 691.73,384.292Z" style="fill:rgb(157,126,97);"/>
                <path d="M750,385.673C762.67,366.737 779.838,364.672 799.828,373.186C795.102,382.607 778.785,387.853 778.682,387.624C778.607,387.456 759.698,388.401 750,385.673Z" style="fill:rgb(232,204,192);stroke:black;stroke-width:2.5px;"/>
                <path d="M681.114,391.431L666.017,382.267C649.706,378.741 640.872,384.934 631.979,391.05C647.723,397.179 663.906,394.818 681.114,391.431Z" style="fill:rgb(232,204,192);stroke:black;stroke-width:2.5px;"/>
                <path d="M761.12,374.783C761.018,380.932 762.485,384.922 765.381,386.948C775.681,388.624 780.612,388.421 786.954,383.795C788.854,378.004 787.744,372.306 784.398,369.512C776.053,367.463 768.294,369.22 761.12,374.783Z" style="fill:rgb(34,79,62);stroke:black;stroke-width:2.5px;"/>
                <path d="M643.724,384.737C642.434,388.409 643.757,390.848 645.395,393.934C650.568,394.805 660.173,394.846 665.153,393.606C666.913,390.733 667.499,385.302 664.279,381.351C657.79,380.629 647.215,381.712 643.724,384.737Z" style="fill:rgb(34,79,62);stroke:black;stroke-width:2.5px;"/>
                <path d="M657.09,553.116C662.146,549.017 671.093,544.749 697.235,539.734L709.587,540.42L729.121,536.303C752.984,536.429 766.932,539.035 776.153,542.822C735.085,538.894 695.412,542.404 657.09,553.116Z"/>
                <path d="M729.121,366.967L750,378.118C757.973,360.302 784.625,358.334 830.341,372.542C836.574,372.422 837.548,366.087 831.199,351.097C825.225,351.271 815.157,347.351 797.745,336.086C778.785,339.855 758.409,345.983 729.121,366.967Z" style="fill:rgb(108,99,94);stroke:black;stroke-width:4.03px;"/>
                <path d="M628.272,631.675C627.145,637.244 633.571,653.64 650.434,684.994C673.039,700.511 691.509,718.096 707.518,736.911L742.804,740.37C749.765,732.4 763.781,728.989 774.694,721.966C829.507,686.697 872.476,653.626 881.089,628.346C887.413,628.782 891.403,644.625 893.152,675.257C890.699,755.834 878.386,829.51 857.633,897.278L604.984,897.278C600.274,857.888 602.592,789.31 611.317,741.571C619.103,698.968 614.021,676.1 628.272,631.675Z" style="fill:rgb(250,247,247);stroke:black;stroke-width:1px;"/>
                <path d="M619.798,664.809L573.155,711.988L270.244,818.725C246.914,842.562 234.6,869.152 228.426,897.278L602.593,897.278C601.735,865.682 599.846,833.453 602.593,802.259C606.933,752.975 617.342,705.866 619.798,664.809Z" style="fill:rgb(108,99,94);stroke:black;stroke-width:4.03px;"/>
                <path d="M889.583,642.356L915.276,678.452L956.47,704.736C998.283,717.057 1043.13,730.07 1082.54,748.164C1099.87,756.115 1205.76,774.658 1256.25,800.689C1280.21,802.126 1283.49,831.949 1287.54,862.898C1289.18,875.518 1295.61,883.32 1296.35,897.278L858.447,897.278C882.389,807.63 889.66,723.997 889.583,642.356Z" style="fill:rgb(108,99,94);stroke:black;stroke-width:4.03px;"/>
                <path d="M892.143,646.208C926.442,707.862 951.716,799.649 974.841,897.617L860.73,897.517C878.798,825.902 888.038,740.163 892.143,646.208Z" style="fill:rgb(102,92,83);"/>
                <path d="M688.375,356.673C691.636,361.738 694.684,362.872 690.52,378.118L687.088,377.689C665.936,368.354 634.562,384.125 602.593,395.274C595.124,386.864 600.961,372.089 619.798,351.097C642.657,365.078 665.516,364.428 688.375,356.673Z" style="fill:rgb(107,97,90);stroke:black;stroke-width:4.03px;"/>
                <path d="M956.157,706.373L1054.45,856.679L995.808,890.187L1104.71,839.925L1092.14,890.187" style="fill:none;stroke:black;stroke-width:3.94px;"/>
                <path d="M874.597,762.812L814.551,861.417C788.444,819.848 758.877,770.207 742.067,750.332C727.198,737.84 712.33,739.479 697.461,741.754C678.275,758.843 671.4,773.81 657.421,791.767C644.817,807.956 624.833,827.091 612.968,843.403L679.876,773.921C703.865,790.175 695.275,837.091 672.585,897.278L741.638,897.278C727.73,854.233 719.154,811.951 737.349,773.493L750,771.777L815.838,867.422L874.597,762.812Z" style="fill:rgb(225,10,10);stroke:black;stroke-width:1px;"/>
                <path d="M696.892,489.638C663.066,501.426 644.823,513.213 640.277,525C637.58,539.429 642.967,545.099 651.257,547.626C686.415,527.377 731.845,524.87 787.133,539.391C795.696,531.045 796.754,520.198 791.593,507.278C776.225,508.31 752.521,499.816 724.342,486.207L709.931,494.785L696.892,489.638Z" style="fill:rgb(108,99,94);stroke:black;stroke-width:4.03px;"/>
                <g transform="matrix(1.0543,0,0,1,-20.3371,0)">
                    <path d="M559.672,715.112L438.207,870.086L473.39,888.515L383.756,870.086L374.542,891.866" style="fill:none;stroke:black;stroke-width:3.83px;"/>
                </g>
            </g>
        </g>
    </g>
</svg>
